<?xml version="1.0" encoding="UTF-8" standalone="no"?>
<!DOCTYPE svg PUBLIC "-//W3C//DTD SVG 1.1//EN"
 "http://www.w3.org/Graphics/SVG/1.1/DTD/svg11.dtd">
<!-- Generated by graphviz version 2.28.0 (20110507.0327)
 -->
<!-- Title: G Pages: 1 -->
<svg width="892pt" height="1108pt"
 viewBox="0.00 0.00 214.00 266.00" xmlns="http://www.w3.org/2000/svg" xmlns:xlink="http://www.w3.org/1999/xlink">
<g id="graph1" class="graph" transform="scale(4.16667 4.16667) rotate(0) translate(4 262)">
<title>G</title>
<polygon fill="white" stroke="white" points="-4,5 -4,-262 211,-262 211,5 -4,5"/>
<!-- main -->
<g id="node1" class="node"><title>main</title>
<polyline fill="none" stroke="black" points="97,-221 127,-221 "/>
<path fill="none" stroke="black" d="M127,-221C133,-221 139,-227 139,-233"/>
<polyline fill="none" stroke="black" points="139,-233 139,-245 "/>
<path fill="none" stroke="black" d="M139,-245C139,-251 133,-257 127,-257"/>
<polyline fill="none" stroke="black" points="127,-257 97,-257 "/>
<path fill="none" stroke="black" d="M97,-257C91,-257 85,-251 85,-245"/>
<polyline fill="none" stroke="black" points="85,-245 85,-233 "/>
<path fill="none" stroke="black" d="M85,-233C85,-227 91,-221 97,-221"/>
<text text-anchor="middle" x="112" y="-235.3" font-family="Times New Roman,serif" font-size="14.00">main</text>
</g>
<!-- modulo1 -->
<g id="node2" class="node"><title>modulo1</title>
<polyline fill="none" stroke="black" points="30,-147 72,-147 "/>
<path fill="none" stroke="black" d="M72,-147C78,-147 84,-153 84,-159"/>
<polyline fill="none" stroke="black" points="84,-159 84,-171 "/>
<path fill="none" stroke="black" d="M84,-171C84,-177 78,-183 72,-183"/>
<polyline fill="none" stroke="black" points="72,-183 30,-183 "/>
<path fill="none" stroke="black" d="M30,-183C24,-183 18,-177 18,-171"/>
<polyline fill="none" stroke="black" points="18,-171 18,-159 "/>
<path fill="none" stroke="black" d="M18,-159C18,-153 24,-147 30,-147"/>
<text text-anchor="middle" x="51" y="-161.3" font-family="Times New Roman,serif" font-size="14.00">modulo1</text>
</g>
<!-- main&#45;&gt;modulo1 -->
<g id="edge2" class="edge"><title>main&#45;&gt;modulo1</title>
<path fill="none" stroke="black" d="M97.5439,-220.937C90.0572,-212.1 80.7675,-201.135 72.4611,-191.331"/>
<polygon fill="black" stroke="black" points="74.9108,-188.808 65.7761,-183.441 69.5699,-193.333 74.9108,-188.808"/>
</g>
<!-- modulo21 -->
<g id="node6" class="node"><title>modulo21</title>
<polyline fill="none" stroke="black" points="102.5,-73 151.5,-73 "/>
<path fill="none" stroke="black" d="M151.5,-73C157.5,-73 163.5,-79 163.5,-85"/>
<polyline fill="none" stroke="black" points="163.5,-85 163.5,-97 "/>
<path fill="none" stroke="black" d="M163.5,-97C163.5,-103 157.5,-109 151.5,-109"/>
<polyline fill="none" stroke="black" points="151.5,-109 102.5,-109 "/>
<path fill="none" stroke="black" d="M102.5,-109C96.5,-109 90.5,-103 90.5,-97"/>
<polyline fill="none" stroke="black" points="90.5,-97 90.5,-85 "/>
<path fill="none" stroke="black" d="M90.5,-85C90.5,-79 96.5,-73 102.5,-73"/>
<text text-anchor="middle" x="127" y="-87.3" font-family="Times New Roman,serif" font-size="14.00">modulo21</text>
</g>
<!-- main&#45;&gt;modulo21 -->
<g id="edge14" class="edge"><title>main&#45;&gt;modulo21</title>
<path fill="none" stroke="black" d="M113.75,-220.966C116.31,-196.045 121.105,-149.374 124.171,-119.537"/>
<polygon fill="black" stroke="black" points="127.674,-119.683 125.215,-109.378 120.711,-118.968 127.674,-119.683"/>
</g>
<!-- modulo2 -->
<g id="node10" class="node"><title>modulo2</title>
<polyline fill="none" stroke="black" points="152,-147 194,-147 "/>
<path fill="none" stroke="black" d="M194,-147C200,-147 206,-153 206,-159"/>
<polyline fill="none" stroke="black" points="206,-159 206,-171 "/>
<path fill="none" stroke="black" d="M206,-171C206,-177 200,-183 194,-183"/>
<polyline fill="none" stroke="black" points="194,-183 152,-183 "/>
<path fill="none" stroke="black" d="M152,-183C146,-183 140,-177 140,-171"/>
<polyline fill="none" stroke="black" points="140,-171 140,-159 "/>
<path fill="none" stroke="black" d="M140,-159C140,-153 146,-147 152,-147"/>
<text text-anchor="middle" x="173" y="-161.3" font-family="Times New Roman,serif" font-size="14.00">modulo2</text>
</g>
<!-- main&#45;&gt;modulo2 -->
<g id="edge10" class="edge"><title>main&#45;&gt;modulo2</title>
<path fill="none" stroke="black" d="M126.456,-220.937C133.943,-212.1 143.233,-201.135 151.539,-191.331"/>
<polygon fill="black" stroke="black" points="154.43,-193.333 158.224,-183.441 149.089,-188.808 154.43,-193.333"/>
</g>
<!-- modulo11 -->
<g id="node4" class="node"><title>modulo11</title>
<polyline fill="none" stroke="black" points="11.5,-73 60.5,-73 "/>
<path fill="none" stroke="black" d="M60.5,-73C66.5,-73 72.5,-79 72.5,-85"/>
<polyline fill="none" stroke="black" points="72.5,-85 72.5,-97 "/>
<path fill="none" stroke="black" d="M72.5,-97C72.5,-103 66.5,-109 60.5,-109"/>
<polyline fill="none" stroke="black" points="60.5,-109 11.5,-109 "/>
<path fill="none" stroke="black" d="M11.5,-109C5.5,-109 -0.5,-103 -0.5,-97"/>
<polyline fill="none" stroke="black" points="-0.5,-97 -0.5,-85 "/>
<path fill="none" stroke="black" d="M-0.5,-85C-0.5,-79 5.5,-73 11.5,-73"/>
<text text-anchor="middle" x="36" y="-87.3" font-family="Times New Roman,serif" font-size="14.00">modulo11</text>
</g>
<!-- modulo1&#45;&gt;modulo11 -->
<g id="edge4" class="edge"><title>modulo1&#45;&gt;modulo11</title>
<path fill="none" stroke="black" d="M47.4452,-146.937C45.7331,-138.719 43.6375,-128.66 41.7096,-119.406"/>
<polygon fill="black" stroke="black" points="45.0995,-118.517 39.6335,-109.441 38.2467,-119.944 45.0995,-118.517"/>
</g>
<!-- modulo1&#45;&gt;modulo21 -->
<g id="edge6" class="edge"><title>modulo1&#45;&gt;modulo21</title>
<path fill="none" stroke="black" d="M69.0109,-146.937C78.6891,-137.768 90.7856,-126.308 101.423,-116.231"/>
<polygon fill="black" stroke="black" points="104.003,-118.608 108.855,-109.19 99.1883,-113.527 104.003,-118.608"/>
</g>
<!-- ghost_module -->
<g id="node8" class="node"><title>ghost_module</title>
<ellipse fill="none" stroke="black" cx="127" cy="-18" rx="62.0922" ry="18"/>
<text text-anchor="middle" x="127" y="-14.3" font-family="Times New Roman,serif" font-size="14.00">ghost_module</text>
</g>
<!-- modulo21&#45;&gt;ghost_module -->
<g id="edge8" class="edge"><title>modulo21&#45;&gt;ghost_module</title>
<path fill="none" stroke="black" d="M127,-72.8129C127,-64.7895 127,-55.0475 127,-46.0691"/>
<polygon fill="black" stroke="black" points="130.5,-46.0288 127,-36.0288 123.5,-46.0289 130.5,-46.0288"/>
</g>
<!-- modulo2&#45;&gt;modulo21 -->
<g id="edge12" class="edge"><title>modulo2&#45;&gt;modulo21</title>
<path fill="none" stroke="black" d="M162.099,-146.937C156.566,-138.277 149.727,-127.573 143.56,-117.921"/>
<polygon fill="black" stroke="black" points="146.476,-115.983 138.143,-109.441 140.577,-119.752 146.476,-115.983"/>
</g>
</g>
</svg>
